<?xml version="1.0" standalone="no"?>
<!DOCTYPE svg PUBLIC "-//W3C//DTD SVG 20010904//EN"
 "http://www.w3.org/TR/2001/REC-SVG-20010904/DTD/svg10.dtd">
<svg version="1.0" xmlns="http://www.w3.org/2000/svg"
 width="170.000000pt" height="230.000000pt" viewBox="0 0 170.000000 230.000000"
 preserveAspectRatio="xMidYMid meet">

<g transform="translate(0.000000,230.000000) scale(0.100000,-0.100000)"
fill="#000000" stroke="none">
<path d="M1450 2224 c-113 -35 -297 -91 -410 -125 -196 -58 -1022 -318 -1028
-324 -7 -7 620 -216 633 -211 17 6 990 690 1015 713 21 19 14 17 -210 -53z"/>
<path d="M954 1488 l-272 -189 -6 -282 c-3 -155 -8 -442 -11 -637 l-6 -355
131 370 c138 390 441 1278 437 1280 -1 1 -124 -83 -273 -187z"/>
</g>
</svg>
